<mxfile host="app.diagrams.net" modified="2023-10-09T09:20:32.361Z" agent="Mozilla/5.0 (Windows NT 10.0; Win64; x64) AppleWebKit/537.36 (KHTML, like Gecko) Chrome/117.0.0.0 Safari/537.36" etag="AUD1mNXgR35fjrR6EXhL" version="22.0.4" type="device">
  <diagram name="Page-1" id="msWykIoHM0EV5T-qIwoC">
    <mxGraphModel dx="1295" dy="245" grid="0" gridSize="10" guides="1" tooltips="1" connect="1" arrows="1" fold="1" page="0" pageScale="1" pageWidth="850" pageHeight="1100" math="0" shadow="0">
      <root>
        <mxCell id="0" />
        <mxCell id="1" parent="0" />
        <mxCell id="4jchnTSm9dGLFL6Cfuig-41" value="" style="edgeStyle=none;curved=1;rounded=0;orthogonalLoop=1;jettySize=auto;html=1;fontSize=12;startSize=8;endSize=8;" parent="1" source="4jchnTSm9dGLFL6Cfuig-39" target="4jchnTSm9dGLFL6Cfuig-40" edge="1">
          <mxGeometry relative="1" as="geometry" />
        </mxCell>
        <mxCell id="4jchnTSm9dGLFL6Cfuig-39" value="Start" style="ellipse;whiteSpace=wrap;html=1;fontSize=16;" parent="1" vertex="1">
          <mxGeometry x="-208" y="33" width="120" height="80" as="geometry" />
        </mxCell>
        <mxCell id="4jchnTSm9dGLFL6Cfuig-40" value="Dashboard" style="whiteSpace=wrap;html=1;fontSize=16;" parent="1" vertex="1">
          <mxGeometry x="-208" y="170" width="120" height="60" as="geometry" />
        </mxCell>
        <mxCell id="4jchnTSm9dGLFL6Cfuig-68" style="edgeStyle=none;curved=1;rounded=0;orthogonalLoop=1;jettySize=auto;html=1;fontSize=12;startSize=8;endSize=8;" parent="1" source="4jchnTSm9dGLFL6Cfuig-42" target="4jchnTSm9dGLFL6Cfuig-67" edge="1">
          <mxGeometry relative="1" as="geometry" />
        </mxCell>
        <mxCell id="4jchnTSm9dGLFL6Cfuig-42" value="Choose Item" style="whiteSpace=wrap;html=1;fontSize=16;" parent="1" vertex="1">
          <mxGeometry x="-207.5" y="481.25" width="120" height="60" as="geometry" />
        </mxCell>
        <mxCell id="4jchnTSm9dGLFL6Cfuig-46" value="" style="edgeStyle=none;curved=1;rounded=0;orthogonalLoop=1;jettySize=auto;html=1;fontSize=12;startSize=8;endSize=8;" parent="1" source="4jchnTSm9dGLFL6Cfuig-44" target="4jchnTSm9dGLFL6Cfuig-42" edge="1">
          <mxGeometry relative="1" as="geometry" />
        </mxCell>
        <mxCell id="4jchnTSm9dGLFL6Cfuig-48" value="" style="edgeStyle=none;curved=1;rounded=0;orthogonalLoop=1;jettySize=auto;html=1;fontSize=12;startSize=8;endSize=8;" parent="1" source="4jchnTSm9dGLFL6Cfuig-44" target="4jchnTSm9dGLFL6Cfuig-47" edge="1">
          <mxGeometry relative="1" as="geometry" />
        </mxCell>
        <mxCell id="4jchnTSm9dGLFL6Cfuig-50" value="" style="edgeStyle=none;curved=1;rounded=0;orthogonalLoop=1;jettySize=auto;html=1;fontSize=12;startSize=8;endSize=8;" parent="1" source="4jchnTSm9dGLFL6Cfuig-44" target="4jchnTSm9dGLFL6Cfuig-49" edge="1">
          <mxGeometry relative="1" as="geometry" />
        </mxCell>
        <mxCell id="4jchnTSm9dGLFL6Cfuig-44" value="Show Available Items" style="whiteSpace=wrap;html=1;fontSize=16;" parent="1" vertex="1">
          <mxGeometry x="-208" y="348.25" width="120" height="60" as="geometry" />
        </mxCell>
        <mxCell id="4jchnTSm9dGLFL6Cfuig-47" value="Show Borrowed Items" style="whiteSpace=wrap;html=1;fontSize=16;" parent="1" vertex="1">
          <mxGeometry x="-448.5" y="348.25" width="120" height="60" as="geometry" />
        </mxCell>
        <mxCell id="4jchnTSm9dGLFL6Cfuig-49" value="Show Pending Items" style="whiteSpace=wrap;html=1;fontSize=16;" parent="1" vertex="1">
          <mxGeometry x="32.5" y="348.25" width="120" height="60" as="geometry" />
        </mxCell>
        <mxCell id="4jchnTSm9dGLFL6Cfuig-59" style="edgeStyle=none;curved=1;rounded=0;orthogonalLoop=1;jettySize=auto;html=1;exitX=1;exitY=1;exitDx=0;exitDy=0;exitPerimeter=0;entryX=0.5;entryY=0;entryDx=0;entryDy=0;fontSize=12;startSize=8;endSize=8;" parent="1" source="4jchnTSm9dGLFL6Cfuig-63" target="4jchnTSm9dGLFL6Cfuig-47" edge="1">
          <mxGeometry relative="1" as="geometry">
            <mxPoint x="-388.5000000000002" y="327.4999999999998" as="sourcePoint" />
          </mxGeometry>
        </mxCell>
        <mxCell id="4jchnTSm9dGLFL6Cfuig-60" style="edgeStyle=none;curved=1;rounded=0;orthogonalLoop=1;jettySize=auto;html=1;exitX=1;exitY=0;exitDx=0;exitDy=0;exitPerimeter=0;entryX=0.5;entryY=0;entryDx=0;entryDy=0;fontSize=12;startSize=8;endSize=8;" parent="1" source="4jchnTSm9dGLFL6Cfuig-63" target="4jchnTSm9dGLFL6Cfuig-49" edge="1">
          <mxGeometry relative="1" as="geometry">
            <mxPoint x="92.5" y="327.4999999999998" as="sourcePoint" />
          </mxGeometry>
        </mxCell>
        <mxCell id="4jchnTSm9dGLFL6Cfuig-56" style="edgeStyle=none;curved=1;rounded=0;orthogonalLoop=1;jettySize=auto;html=1;exitX=1;exitY=0.5;exitDx=0;exitDy=0;exitPerimeter=0;fontSize=12;startSize=8;endSize=8;" parent="1" edge="1">
          <mxGeometry relative="1" as="geometry">
            <mxPoint x="-148" y="327.4999999999998" as="sourcePoint" />
            <mxPoint x="-148" y="327.4999999999998" as="targetPoint" />
          </mxGeometry>
        </mxCell>
        <mxCell id="4jchnTSm9dGLFL6Cfuig-66" style="edgeStyle=none;curved=1;rounded=0;orthogonalLoop=1;jettySize=auto;html=1;fontSize=12;startSize=8;endSize=8;" parent="1" source="4jchnTSm9dGLFL6Cfuig-63" target="4jchnTSm9dGLFL6Cfuig-44" edge="1">
          <mxGeometry relative="1" as="geometry" />
        </mxCell>
        <mxCell id="4jchnTSm9dGLFL6Cfuig-63" value="" style="strokeWidth=2;html=1;shape=mxgraph.flowchart.annotation_2;align=left;labelPosition=right;pointerEvents=1;fontSize=16;rotation=90;" parent="1" vertex="1">
          <mxGeometry x="-176.37" y="19.88" width="56.25" height="480.5" as="geometry" />
        </mxCell>
        <mxCell id="4jchnTSm9dGLFL6Cfuig-72" value="" style="edgeStyle=none;curved=1;rounded=0;orthogonalLoop=1;jettySize=auto;html=1;fontSize=12;startSize=8;endSize=8;" parent="1" source="4jchnTSm9dGLFL6Cfuig-67" target="4jchnTSm9dGLFL6Cfuig-71" edge="1">
          <mxGeometry relative="1" as="geometry" />
        </mxCell>
        <mxCell id="4jchnTSm9dGLFL6Cfuig-67" value="Student Information" style="shape=parallelogram;perimeter=parallelogramPerimeter;whiteSpace=wrap;html=1;fixedSize=1;fontSize=16;" parent="1" vertex="1">
          <mxGeometry x="-208" y="614" width="120" height="60" as="geometry" />
        </mxCell>
        <mxCell id="4jchnTSm9dGLFL6Cfuig-74" value="" style="edgeStyle=none;curved=1;rounded=0;orthogonalLoop=1;jettySize=auto;html=1;fontSize=12;startSize=8;endSize=8;" parent="1" source="4jchnTSm9dGLFL6Cfuig-71" target="4jchnTSm9dGLFL6Cfuig-73" edge="1">
          <mxGeometry relative="1" as="geometry" />
        </mxCell>
        <mxCell id="4jchnTSm9dGLFL6Cfuig-71" value="Send Request" style="whiteSpace=wrap;html=1;fontSize=16;" parent="1" vertex="1">
          <mxGeometry x="-208" y="743" width="120" height="60" as="geometry" />
        </mxCell>
        <mxCell id="4jchnTSm9dGLFL6Cfuig-78" value="" style="edgeStyle=none;curved=1;rounded=0;orthogonalLoop=1;jettySize=auto;html=1;fontSize=12;startSize=8;endSize=8;entryX=0.5;entryY=0;entryDx=0;entryDy=0;" parent="1" source="4jchnTSm9dGLFL6Cfuig-73" target="4jchnTSm9dGLFL6Cfuig-79" edge="1">
          <mxGeometry relative="1" as="geometry">
            <mxPoint x="-148" y="1144" as="targetPoint" />
          </mxGeometry>
        </mxCell>
        <mxCell id="4jchnTSm9dGLFL6Cfuig-73" value="Item added at Pending" style="whiteSpace=wrap;html=1;fontSize=16;" parent="1" vertex="1">
          <mxGeometry x="-208" y="864" width="120" height="60" as="geometry" />
        </mxCell>
        <mxCell id="4jchnTSm9dGLFL6Cfuig-75" value="" style="endArrow=classic;html=1;rounded=0;fontSize=12;startSize=8;endSize=8;curved=1;entryX=0.5;entryY=1;entryDx=0;entryDy=0;exitX=1;exitY=0;exitDx=0;exitDy=0;" parent="1" source="4jchnTSm9dGLFL6Cfuig-73" target="4jchnTSm9dGLFL6Cfuig-49" edge="1">
          <mxGeometry relative="1" as="geometry">
            <mxPoint x="-55" y="932" as="sourcePoint" />
            <mxPoint x="45" y="932" as="targetPoint" />
          </mxGeometry>
        </mxCell>
        <mxCell id="4jchnTSm9dGLFL6Cfuig-76" value="" style="shape=message;html=1;outlineConnect=0;fontSize=16;" parent="4jchnTSm9dGLFL6Cfuig-75" vertex="1">
          <mxGeometry width="20" height="14" relative="1" as="geometry">
            <mxPoint x="-10" y="-7" as="offset" />
          </mxGeometry>
        </mxCell>
        <mxCell id="4jchnTSm9dGLFL6Cfuig-79" value="End" style="ellipse;whiteSpace=wrap;html=1;fontSize=16;" parent="1" vertex="1">
          <mxGeometry x="-208" y="981" width="120" height="80" as="geometry" />
        </mxCell>
      </root>
    </mxGraphModel>
  </diagram>
</mxfile>
